<svg width="720" height="140" viewBox="0 0 720 140" fill="none" xmlns="http://www.w3.org/2000/svg">
<path d="M41.0201 111.25C33.5341 111.25 26.6593 109.478 20.3955 105.931C14.1317 102.386 9.16652 97.4907 5.49989 91.2467C1.8333 84.9257 0 77.7951 0 69.8552C0 61.9924 1.8333 54.939 5.49989 48.695C9.16652 42.374 14.1317 37.4404 20.3955 33.8944C26.6593 30.3485 33.5341 28.5754 41.0201 28.5754C48.5824 28.5754 55.4573 30.3485 61.6447 33.8944C67.9085 37.4404 72.8355 42.374 76.4256 48.695C80.0922 54.939 81.9255 61.9924 81.9255 69.8552C81.9255 77.7951 80.0922 84.9257 76.4256 91.2467C72.8355 97.4907 67.9085 102.386 61.6447 105.931C55.3809 109.478 48.506 111.25 41.0201 111.25ZM41.0201 96.7969C45.8325 96.7969 50.072 95.7177 53.7386 93.5593C57.4052 91.3238 60.2697 88.1633 62.3322 84.0776C64.3946 79.9921 65.4258 75.2513 65.4258 69.8552C65.4258 64.4592 64.3946 59.7569 62.3322 55.7484C60.2697 51.6629 57.4052 48.5409 53.7386 46.3824C50.072 44.2241 45.8325 43.1448 41.0201 43.1448C36.2077 43.1448 31.93 44.2241 28.187 46.3824C24.5204 48.5409 21.6559 51.6629 19.5934 55.7484C17.5309 59.7569 16.4997 64.4592 16.4997 69.8552C16.4997 75.2513 17.5309 79.9921 19.5934 84.0776C21.6559 88.1633 24.5204 91.3238 28.187 93.5593C31.93 95.7177 36.2077 96.7969 41.0201 96.7969ZM157.681 110.441H141.64L105.318 55.0546V110.441H89.2766V29.6161H105.318L141.64 85.1183V29.6161H157.681V110.441ZM184.992 42.7979V63.0331H211.918V75.8679H184.992V97.2594H215.356V110.441H168.95V29.6161H215.356V42.7979H184.992Z" fill="#04726B"/>
<path d="M267.288 42.7978V63.033H294.215V75.8679H267.288V97.2594H297.652V110.441H251.247V29.6161H297.652V42.7978H267.288ZM323.688 29.7317V110.441H307.647V29.7317H323.688ZM390.64 54.0139C388.807 50.6222 386.286 48.0398 383.078 46.2667C379.87 44.4938 376.126 43.6073 371.849 43.6073C367.113 43.6073 362.911 44.6866 359.245 46.8449C355.578 49.0033 352.714 52.0868 350.651 56.0953C348.589 60.1038 347.558 64.729 347.558 69.9708C347.558 75.3669 348.589 80.0692 350.651 84.0776C352.791 88.0861 355.731 91.1696 359.474 93.328C363.217 95.4864 367.572 96.5656 372.536 96.5656C378.647 96.5656 383.651 94.9468 387.546 91.7092C391.442 88.3945 394.001 83.8078 395.223 77.9492H367.724V65.5769H411.036V79.6837C409.967 85.311 407.675 90.5144 404.161 95.2937C400.646 100.073 396.102 103.928 390.526 106.857C385.026 109.709 378.838 111.135 371.963 111.135C364.249 111.135 357.259 109.4 350.995 105.931C344.808 102.386 339.918 97.4906 336.329 91.2466C332.814 85.0026 331.058 77.9107 331.058 69.9708C331.058 62.031 332.814 54.939 336.329 48.695C339.918 42.374 344.808 37.4789 350.995 34.01C357.259 30.4641 364.21 28.691 371.849 28.691C380.863 28.691 388.692 30.9266 395.338 35.3976C401.984 39.7915 406.567 45.997 409.088 54.0139H390.64ZM484.663 29.7317V110.441H468.622V76.0992H434.362V110.441H418.321V29.7317H434.362V62.9174H468.622V29.7317H484.663ZM550.295 29.7317V42.7978H528.983V110.441H512.941V42.7978H491.629V29.7317H550.295Z" fill="#04726B"/>
<path d="M719 100.485L682.403 137.417L659.3 114.104L671.556 101.848L682.404 112.796L694.603 100.485L683.81 89.5944L696.065 77.3395L719 100.485ZM719 38.9332L696.002 62.1403L683.747 49.8854L694.603 38.9332L682.404 26.6227L671.492 37.6305L659.286 25.4244L659.273 25.4371L659.225 25.3893L682.404 2.00061L719 38.9332Z" fill="#04726B"/>
<path d="M688.503 69.709L651.906 106.641L651.905 106.64L621.407 137.418L584.81 100.485L615.308 69.707L584.812 38.9316L621.408 2L688.503 69.709ZM609.209 38.9316L639.706 69.708L609.209 100.485L621.408 112.796L664.104 69.709L621.408 26.6211L609.209 38.9316Z" fill="#04726B"/>
</svg>
